<?xml version="1.0" encoding="iso-8859-1"?>
<!-- Generator: Adobe Illustrator 19.0.1, SVG Export Plug-In . SVG Version: 6.00 Build 0)  -->
<svg version="1.1" xmlns="http://www.w3.org/2000/svg" xmlns:xlink="http://www.w3.org/1999/xlink" x="0px" y="0px"
	 viewBox="0 0 128 128" style="enable-background:new 0 0 128 128;" xml:space="preserve">
<g id="_x37_">
	<linearGradient id="SVGID_1_" gradientUnits="userSpaceOnUse" x1="64" y1="103.6351" x2="64" y2="24.3649">
		<stop  offset="0" style="stop-color:#004990"/>
		<stop  offset="1" style="stop-color:#0B7AB6"/>
	</linearGradient>
	<path style="fill-rule:evenodd;clip-rule:evenodd;fill:url(#SVGID_1_);" d="M6.85,24.365h114.3c3.507,0,6.35,2.839,6.35,6.342
		v66.587c0,3.503-2.843,6.342-6.35,6.342H6.85c-3.507,0-6.35-2.839-6.35-6.342V30.707C0.5,27.204,3.343,24.365,6.85,24.365z"/>
	<path style="fill:#FFFFFF;" d="M102.376,68.326c0.114-0.005,0.229-0.008,0.345-0.008h9.06v1.355
		c1.018-0.861,2.379-1.355,3.955-1.355h9.061v6.607h-1.582c2.24,1.506,2.24,4.058,2.24,5.234c0,3.333-2.678,5.847-6.23,5.847h-9.061
		v-1.26c-1.061,0.795-2.427,1.26-3.955,1.26h-9.06v-0.063H86.011l0.002,0.033h-6.978l-0.158-4.307
		c-0.008-0.314-0.056-0.529-0.1-0.655h-2.525v4.962h-7.056v-6.38c-1.145,1.068-2.825,1.605-5.033,1.605h-2.852v4.775h-3.427h-1.491
		h-4.337l-3.253-3.754l-3.322,3.721H29.69V68.286h16.245l3.041,3.486l3.136-3.456h4.394h1.378h7.159c1.431,0,2.987,0.43,4.154,1.472
		v-1.47h10.787c1.502,0,3.01,0.442,4.132,1.379v-1.411h14.9v1.188c0.63-0.471,1.375-0.812,2.207-0.997 M99.798,65.282h-3.765
		l-1.366-3.14h-4.536l-1.351,3.14h-5.744c-1.964,0-3.668-0.68-4.93-1.965c-0.165-0.168-0.321-0.346-0.469-0.533v2.49H65.475
		l-0.162-4.305c-0.008-0.314-0.056-0.528-0.099-0.654h-2.526v4.959H36.365v-3.86l-1.779,3.86h-5.469l-1.648-3.725v3.725h-3.457
		h-2.736h-3.746l-1.369-3.14h-4.537l-1.349,3.14H2.691l7.735-17.656h6.919l3.068,6.884v-6.884h3.457h1.368H28.8l3.065,6.839
		l3.075-6.839h3.82h1.202h26.456c1.515,0,3.037,0.45,4.163,1.404v-1.421h7.056v2.643c1.53-1.985,3.666-2.633,5.053-2.633
		l13.162,0.008l2.925,6.553v-6.56h7.929l3.01,5.028v-5.028h7.054v17.671h-7.53l-3.409-5.641v5.641h-3.457H99.798z M121.024,77.769
		c0.677,0.682,0.784,1.584,0.784,2.074c0,0.615-0.134,1.282-0.559,1.842c0.36-0.345,0.608-0.839,0.608-1.527
		C121.857,78.993,121.857,78.209,121.024,77.769z M108.013,77.772c0.676,0.681,0.783,1.582,0.783,2.072
		c0,0.613-0.132,1.276-0.553,1.834c0.356-0.345,0.6-0.835,0.6-1.518C108.842,78.994,108.842,78.212,108.013,77.772z M53.508,76.996
		l0.779,0.919v-1.782L53.508,76.996z M81.176,72.085c0.578,0.442,0.966,1.043,1.158,1.693
		C82.328,73.341,82.244,72.459,81.176,72.085z M66.487,72.242c0.374,0.335,0.656,0.74,0.842,1.18
		C67.219,72.988,66.985,72.538,66.487,72.242z M83.424,58.483c0.136,0.008,0.415,0.015,0.749,0.019l1.855-4.242H85.07
		c-2.141,0-2.291,0.114-2.291,1.74v1.021C82.787,58.243,83.159,58.421,83.424,58.483z M67.614,51.386
		c0.577,0.444,0.965,1.045,1.157,1.696C68.765,52.646,68.683,51.76,67.614,51.386z"/>
	<linearGradient id="icon_1_" gradientUnits="userSpaceOnUse" x1="5.4417" y1="66.8035" x2="123.6563" y2="66.8035">
		<stop  offset="0" style="stop-color:#004990"/>
		<stop  offset="1" style="stop-color:#0B7AB6"/>
	</linearGradient>
	<path id="icon_2_" style="fill:url(#icon_1_);" d="M119.053,75.562c4.25,0.218,4.603,2.337,4.603,4.597
		c0,2.634-2.169,4.05-4.431,4.05h-7.262v-3.016h5.659c0.959,0,2.388,0,2.388-1.35c0-0.641-0.25-1.051-1.273-1.158
		c-0.453-0.066-2.134-0.159-2.388-0.164c-3.838-0.101-4.732-2.007-4.732-4.328c0-2.637,1.856-4.078,4.12-4.078h7.262v3.013h-5.316
		c-1.208,0.012-2.512-0.143-2.512,1.221c0,0.863,0.642,1.036,1.46,1.116C116.915,75.466,118.799,75.564,119.053,75.562z
		 M103.617,75.466c-0.818-0.08-1.462-0.253-1.462-1.116c0-1.364,1.304-1.21,2.515-1.221h5.312v-3.013h-7.261
		c-2.264,0-4.118,1.441-4.118,4.078c0,2.321,0.891,4.228,4.73,4.328c0.252,0.005,1.933,0.098,2.389,0.164
		c1.022,0.108,1.274,0.517,1.274,1.158c0,1.35-1.431,1.35-2.39,1.35h-5.659v3.016h7.261c2.264,0,4.432-1.415,4.432-4.05
		c0-2.26-0.355-4.38-4.605-4.597C105.787,75.564,103.899,75.466,103.617,75.466z M85.916,84.146h11.302v-2.952h-7.842v-2.777h7.623
		v-2.667h-7.623V73.11h7.842v-3.027H85.916V84.146z M84.008,81.289l0.126,2.889H80.77l-0.094-2.576
		c-0.03-1.193-0.502-2.386-1.695-2.386h-4.527v4.962h-3.457V70.115h8.988c1.699,0,4.15,0.753,4.15,3.764
		c0,1.696-0.503,2.952-2.39,3.893C83.381,77.96,84.008,79.027,84.008,81.289z M80.676,74.748c0-0.69-0.455-1.617-1.902-1.617h-4.321
		v3.186h4.305C80.174,76.317,80.676,75.688,80.676,74.748z M69.225,74.413c0,4.929-3.269,4.99-5.061,4.99h-4.651v4.775H52.88
		l-4.055-4.679l-4.148,4.646H31.489V70.082h13.627l3.833,4.394l3.961-4.363h12.133C66.742,70.113,69.225,70.897,69.225,74.413z
		 M46.673,76.956l-3.366-3.827l-8.408-0.019v2.639h7.623v2.667h-7.623v2.777h7.968L46.673,76.956z M56.086,71.463l-4.967,5.493
		l4.967,5.87V71.463z M65.797,74.748c0-0.69-0.457-1.617-1.904-1.617h-4.319v3.376h4.306C65.295,76.507,65.797,75.69,65.797,74.748z
		 M72.381,63.478V49.398h3.458v14.079H72.381z M44.079,63.478h11.299v-2.953h-7.839v-2.777h7.62v-2.667h-7.62v-2.639h7.839v-3.027
		H44.079V63.478z M70.445,60.589l0.126,2.889h-3.363l-0.097-2.576c-0.03-1.193-0.501-2.384-1.698-2.384h-4.524v4.96h-3.458V49.415
		h8.988c1.7,0,4.152,0.751,4.152,3.764c0,1.696-0.502,2.955-2.39,3.893C69.816,57.262,70.445,58.329,70.445,60.589z M67.111,54.047
		c0-0.69-0.455-1.617-1.901-1.617h-4.321v3.187h4.306C66.61,55.617,67.111,54.99,67.111,54.047z M41.622,49.415v14.063h-3.458
		V53.212l-4.73,10.266h-3.144L25.67,53.039v10.439h-6.962l-1.369-3.14h-6.901l-1.349,3.14H5.442l6.161-14.063h4.574l6.036,13.544
		V49.415h5.422l4.228,9.433l4.243-9.433H41.622z M15.955,57.304l-2.148-4.915l-2.062,4.915H15.955z M114.972,49.408v14.077h-4.715
		l-6.223-10.299v10.299h-6.821l-1.366-3.14h-6.9l-1.351,3.14h-4.559c-3.833,0-5.531-3.21-5.451-7.103
		c0.115-5.776,3.534-6.974,5.106-6.974h4.515v3.055H85.07c-2.297,0-4.09,0.241-4.09,3.537v1.02c0.016,2.48,1.317,3.067,2.153,3.238
		c0.203,0.049,2.214,0.049,2.214,0.049l4.763-10.893h4.575l5.892,13.2V49.408h5.109l5.83,9.737v-9.737H114.972z M94.507,57.311
		l-2.169-4.916l-2.059,4.916H94.507z"/>
</g>
<g id="Layer_1">
</g>
</svg>
