<?xml version="1.0" encoding="iso-8859-1"?>
<!-- Generator: Adobe Illustrator 19.0.1, SVG Export Plug-In . SVG Version: 6.00 Build 0)  -->
<svg version="1.1" xmlns="http://www.w3.org/2000/svg" xmlns:xlink="http://www.w3.org/1999/xlink" x="0px" y="0px"
	 viewBox="0 0 128 128" style="enable-background:new 0 0 128 128;" xml:space="preserve">
<g id="_x36_">
	<linearGradient id="SVGID_1_" gradientUnits="userSpaceOnUse" x1="64" y1="24.362" x2="64" y2="103.638">
		<stop  offset="0" style="stop-color:#FFFFFF"/>
		<stop  offset="1" style="stop-color:#EFEFEF"/>
	</linearGradient>
	<path style="fill-rule:evenodd;clip-rule:evenodd;fill:url(#SVGID_1_);stroke:#CCCCCC;stroke-miterlimit:10;" d="M121.155,24.362
		H6.845c-3.502,0-6.345,2.839-6.345,6.337v66.59c0,3.51,2.843,6.349,6.345,6.349h114.31c3.503,0,6.345-2.839,6.345-6.349v-66.59
		C127.5,27.201,124.657,24.362,121.155,24.362z"/>
	
		<radialGradient id="SVGID_2_" cx="68.4393" cy="63.6844" r="9.4084" gradientTransform="matrix(1.0013 0 0 1 -0.0848 0)" gradientUnits="userSpaceOnUse">
		<stop  offset="0" style="stop-color:#EFEFEF"/>
		<stop  offset="0.4671" style="stop-color:#F3CBB1"/>
		<stop  offset="1" style="stop-color:#FE6C0B"/>
	</radialGradient>
	<path style="fill:url(#SVGID_2_);" d="M77.973,63.668c0,5.235-4.198,9.317-9.515,9.317c-5.453,0-9.539-4.028-9.539-9.421
		c0-5.072,4.272-9.18,9.539-9.18C73.801,54.384,77.973,58.468,77.973,63.668z"/>
	<path style="fill:#232323;" d="M14.294,54.716H9.172v17.872h5.098c2.711,0,4.666-0.647,6.381-2.06
		c2.039-1.701,3.251-4.241,3.251-6.864C23.902,58.382,19.955,54.716,14.294,54.716z M18.372,68.133
		c-1.103,0.994-2.519,1.425-4.774,1.425h-0.936V57.747h0.936c2.255,0,3.622,0.395,4.774,1.437c1.211,1.078,1.931,2.731,1.931,4.444
		C20.303,65.354,19.584,67.067,18.372,68.133z"/>
	<rect x="25.509" y="54.717" style="fill:#232323;" width="3.487" height="17.867"/>
	<path style="fill:#232323;" d="M37.529,61.569c-2.096-0.773-2.711-1.284-2.711-2.247c0-1.124,1.094-1.98,2.601-1.98
		c1.046,0,1.904,0.428,2.818,1.442l1.822-2.378c-1.503-1.317-3.299-1.986-5.259-1.986c-3.163,0-5.579,2.197-5.579,5.116
		c0,2.468,1.127,3.725,4.399,4.902c1.369,0.482,2.065,0.803,2.414,1.02c0.698,0.458,1.049,1.097,1.049,1.846
		c0,1.451-1.155,2.518-2.713,2.518c-1.663,0-3.003-0.827-3.807-2.381l-2.25,2.173c1.606,2.355,3.538,3.401,6.196,3.401
		c3.621,0,6.169-2.414,6.169-5.869C42.678,64.307,41.5,63.02,37.529,61.569z"/>
	<path style="fill:#232323;" d="M43.776,63.659c0,5.256,4.133,9.326,9.444,9.326c1.504,0,2.79-0.294,4.375-1.043v-4.1
		c-1.398,1.394-2.632,1.953-4.215,1.953c-3.513,0-6.01-2.545-6.01-6.163c0-3.425,2.574-6.133,5.85-6.133
		c1.66,0,2.923,0.592,4.375,2.01v-4.1c-1.529-0.776-2.793-1.094-4.293-1.094C48.015,54.315,43.776,58.468,43.776,63.659z"/>
	<polygon style="fill:#232323;" points="85.867,66.718 81.091,54.717 77.282,54.717 84.876,73.042 86.753,73.042 94.48,54.717 
		90.699,54.717 	"/>
	<polygon style="fill:#232323;" points="96.065,72.584 105.963,72.584 105.963,69.557 99.552,69.557 99.552,64.732 105.719,64.732 
		105.719,61.709 99.552,61.709 99.552,57.743 105.963,57.743 105.963,54.717 96.065,54.717 	"/>
	<path style="fill:#232323;" d="M115.697,65.054c2.627-0.527,4.078-2.324,4.078-5.067c0-3.342-2.303-5.271-6.333-5.271h-5.17v17.872
		h3.478v-7.187h0.468l4.822,7.187h4.294L115.697,65.054z M112.77,62.934h-1.02v-5.402h1.079c2.171,0,3.359,0.91,3.359,2.647
		C116.189,61.976,115.002,62.934,112.77,62.934z"/>
	<path style="fill-rule:evenodd;clip-rule:evenodd;fill:#F96C0D;" d="M85.135,93.049c-12.031,4.863-23.282,8.289-32.098,10.589
		h68.118c3.503,0,6.345-2.839,6.345-6.349V71.894C127.5,71.894,112.399,82.028,85.135,93.049z"/>
</g>
<g id="Layer_1">
</g>
</svg>
