<?xml version="1.0" encoding="iso-8859-1"?>
<!-- Generator: Adobe Illustrator 19.0.1, SVG Export Plug-In . SVG Version: 6.00 Build 0)  -->
<svg version="1.1" xmlns="http://www.w3.org/2000/svg" xmlns:xlink="http://www.w3.org/1999/xlink" x="0px" y="0px"
	 viewBox="0 0 128 128" style="enable-background:new 0 0 128 128;" xml:space="preserve">
<g id="_x38_">
	<linearGradient id="SVGID_1_" gradientUnits="userSpaceOnUse" x1="64" y1="24.3649" x2="64" y2="103.6351">
		<stop  offset="0" style="stop-color:#FFFFFF"/>
		<stop  offset="1" style="stop-color:#EFEFEF"/>
	</linearGradient>
	<path style="fill-rule:evenodd;clip-rule:evenodd;fill:url(#SVGID_1_);stroke:#CCCCCC;stroke-miterlimit:10;" d="M6.85,24.365
		h114.3c3.507,0,6.35,2.839,6.35,6.342v66.587c0,3.503-2.843,6.342-6.35,6.342H6.85c-3.507,0-6.35-2.839-6.35-6.342V30.707
		C0.5,27.204,3.343,24.365,6.85,24.365z"/>
	<path style="fill:#1B8F37;" d="M91.546,61.894c-1.331,1.503-5.872,0.845-5.872,0.845l0.087-3.591c0,0,4.168-0.572,5.686,0.758
		C91.732,60.379,92.019,61.323,91.546,61.894z M85.76,68.132c1.904,0,3.981,0.286,5.686-0.572c0.473-0.472,0.759-1.218,0.572-1.889
		c-0.1-0.559-0.572-1.044-1.132-1.317c-1.804-0.286-3.608-0.199-5.313-0.099C85.487,65.672,85.574,66.815,85.76,68.132z
		 M97.132,66.902c-0.286,1.143-1.232,2.174-2.364,2.361H81.505l-0.473-0.186c0-3.777-0.099-7.381,0.087-11.071h8.436
		c2.65,0.286,5.586-0.845,6.818,1.615c0.386,0.845,0.286,1.988-0.373,2.647c-0.386,0.659-1.232,0.758-1.418,1.23
		c1.033,0.286,2.177,1.131,2.551,2.174l0.1-0.087V38.237l-0.187-2.46c-3.882,0.099-7.303-0.099-10.999,0.373
		c-3.023,0.857-5.4,3.603-5.773,6.822l0.05,48.161l7.527,0.087c2.078-0.087,4.068-0.186,5.686-1.23
		c2.078-1.317,3.509-3.504,3.695-5.765C97.518,78.445,97.319,72.58,97.132,66.902z"/>
	<path style="fill:#016BB1;" d="M52.423,77.115l-0.187-29.61c-0.099-3.218,0.087-7.853-0.099-11.543
		c-3.795,0.099-8.05-0.572-11.745,0.572c-2.464,0.944-4.554,3.305-5.027,5.865v22.714l1.331,0.186
		c2.277-0.758,1.319,1.988,3.023,2.361c1.045,0.659,2.563,0.857,3.608,0.572c4.454-1.988,1.705-6.337,2.75-10.226
		c2.078,0.099,3.695-0.273,5.487,0.099l0.1,3.591c-0.286,1.988,0.572,4.075-0.858,5.591c-2.078,2.932-6.159,2.647-9.282,2.361
		c-2.551-0.099-4.641-1.603-6.159-3.591v24.689l0.1,0.659c4.069-0.373,8.908,0.758,12.504-1.031
		C53.655,87.814,51.951,81.663,52.423,77.115z"/>
	<path style="fill:#E11919;" d="M74.68,39.098l-0.18-3.222h-8.06c-1.799,0.084-3.502,0.371-4.93,1.318
		c-1.979,1.234-3.502,3.222-3.694,5.486l0.192,48.537c3.982,0,8.432,0.575,12.03-0.659c2.375-0.851,4.078-3.222,4.738-5.39
		L74.68,39.098z M73.925,69.081H63.022c-1.883-0.371-3.406-1.425-4.246-3.306c-0.768-1.809-0.396-4.264,0.936-5.786
		c1.139-1.318,2.759-2.072,4.546-1.988l9.667,0.108c0.192,0.563,0,1.042,0.096,1.701c-2.843-0.755-6.357-1.605-8.9,0.467
		c-0.948,1.138-1.523,2.276-1.427,3.797c0.288,1.701,1.319,3.306,2.939,3.977c2.471,0.755,5.014,0.084,7.293-0.491
		C74.021,68.051,74.117,68.709,73.925,69.081z"/>
</g>
<g id="Layer_1">
</g>
</svg>
