<?xml version="1.0" encoding="iso-8859-1"?>
<!-- Generator: Adobe Illustrator 19.0.1, SVG Export Plug-In . SVG Version: 6.00 Build 0)  -->
<svg version="1.1" xmlns="http://www.w3.org/2000/svg" xmlns:xlink="http://www.w3.org/1999/xlink" x="0px" y="0px"
	 viewBox="0 0 128 128" style="enable-background:new 0 0 128 128;" xml:space="preserve">
<g id="_x32_">
	<linearGradient id="SVGID_1_" gradientUnits="userSpaceOnUse" x1="64" y1="103.6351" x2="64" y2="24.3649">
		<stop  offset="0" style="stop-color:#152973"/>
		<stop  offset="1" style="stop-color:#0C4185"/>
	</linearGradient>
	<path style="fill-rule:evenodd;clip-rule:evenodd;fill:url(#SVGID_1_);" d="M6.85,24.365h114.3c3.507,0,6.35,2.839,6.35,6.342
		v66.587c0,3.503-2.843,6.342-6.35,6.342H6.85c-3.507,0-6.35-2.839-6.35-6.342V30.707C0.5,27.204,3.343,24.365,6.85,24.365z"/>
	<polygon style="fill:#FBB131;" points="85.323,92.651 86.77,92.613 88.197,92.509 89.596,92.33 90.986,92.084 92.337,91.773 
		93.67,91.395 94.975,90.952 96.251,90.451 97.498,89.885 98.708,89.271 99.881,88.591 101.024,87.865 102.121,87.081 103.18,86.25 
		104.2,85.372 105.174,84.438 106.11,83.465 106.989,82.446 107.821,81.389 108.605,80.294 109.333,79.151 110.014,77.981 
		110.628,76.772 111.195,75.526 111.696,74.252 112.141,72.949 112.519,71.618 112.831,70.268 113.077,68.88 113.256,67.483 
		113.36,66.058 113.398,64.613 113.36,63.178 113.256,61.762 113.077,60.365 112.831,58.996 112.519,57.646 112.141,56.325 
		111.696,55.022 111.195,53.757 110.628,52.52 110.014,51.312 109.333,50.151 108.605,49.009 107.821,47.913 106.989,46.866 
		106.11,45.846 105.174,44.874 104.2,43.949 103.18,43.071 102.121,42.24 101.024,41.456 99.881,40.729 98.708,40.059 
		97.498,39.446 96.251,38.879 94.975,38.379 93.67,37.935 92.337,37.558 90.986,37.246 89.596,37.001 88.197,36.821 86.77,36.717 
		85.323,36.68 83.886,36.717 82.459,36.821 81.06,37.001 79.68,37.246 78.328,37.558 76.995,37.935 75.7,38.379 74.424,38.879 
		73.186,39.446 71.985,40.059 70.813,40.729 69.679,41.456 68.582,42.24 67.524,43.071 66.512,43.949 65.539,44.874 64.612,45.846 
		63.733,46.866 62.901,47.913 62.126,49.009 61.398,50.151 60.727,51.312 60.103,52.52 59.546,53.757 59.045,55.022 58.61,56.325 
		58.232,57.646 57.92,58.996 57.674,60.365 57.494,61.762 57.39,63.178 57.353,64.613 57.39,66.058 57.494,67.483 57.674,68.88 
		57.92,70.268 58.232,71.618 58.61,72.949 59.045,74.252 59.546,75.526 60.103,76.772 60.727,77.981 61.398,79.151 62.126,80.294 
		62.901,81.389 63.733,82.446 64.612,83.465 65.539,84.438 66.512,85.372 67.524,86.25 68.582,87.081 69.679,87.865 70.813,88.591 
		71.985,89.271 73.186,89.885 74.424,90.451 75.7,90.952 76.995,91.395 78.328,91.773 79.68,92.084 81.06,92.33 82.459,92.509 
		83.886,92.613 	"/>
	<polygon style="fill:#EC1C2E;" points="47.834,92.651 49.27,92.613 50.698,92.509 52.097,92.33 53.477,92.084 54.829,91.773 
		56.162,91.395 57.457,90.952 58.733,90.451 59.971,89.885 61.171,89.271 62.344,88.591 63.478,87.865 64.574,87.081 65.633,86.25 
		66.645,85.372 67.618,84.438 68.545,83.465 69.424,82.446 70.256,81.389 71.031,80.294 71.759,79.151 72.43,77.981 73.054,76.772 
		73.611,75.526 74.112,74.252 74.547,72.949 74.925,71.618 75.237,70.268 75.483,68.88 75.663,67.483 75.767,66.058 75.804,64.613 
		75.767,63.178 75.663,61.762 75.483,60.365 75.237,58.996 74.925,57.646 74.547,56.325 74.112,55.022 73.611,53.757 73.054,52.52 
		72.43,51.312 71.759,50.151 71.031,49.009 70.256,47.913 69.424,46.866 68.545,45.846 67.618,44.874 66.645,43.949 65.633,43.071 
		64.574,42.24 63.478,41.456 62.344,40.729 61.171,40.059 59.971,39.446 58.733,38.879 57.457,38.379 56.162,37.935 54.829,37.558 
		53.477,37.246 52.097,37.001 50.698,36.821 49.27,36.717 47.834,36.68 46.387,36.717 44.96,36.821 43.561,37.001 42.171,37.246 
		40.82,37.558 39.487,37.935 38.182,38.379 36.906,38.879 35.659,39.446 34.449,40.059 33.276,40.729 32.133,41.456 31.036,42.24 
		29.977,43.071 28.957,43.949 27.983,44.874 27.047,45.846 26.168,46.866 25.336,47.913 24.552,49.009 23.824,50.151 23.143,51.312 
		22.529,52.52 21.961,53.757 21.461,55.022 21.016,56.325 20.638,57.646 20.326,58.996 20.08,60.365 19.901,61.762 19.797,63.178 
		19.759,64.613 19.797,66.058 19.901,67.483 20.08,68.88 20.326,70.268 20.638,71.618 21.016,72.949 21.461,74.252 21.961,75.526 
		22.529,76.772 23.143,77.981 23.824,79.151 24.552,80.294 25.336,81.389 26.168,82.446 27.047,83.465 27.983,84.438 28.957,85.372 
		29.977,86.25 31.036,87.081 32.133,87.865 33.276,88.591 34.449,89.271 35.659,89.885 36.906,90.451 38.182,90.952 39.487,91.395 
		40.82,91.773 42.171,92.084 43.561,92.33 44.96,92.509 46.387,92.613 	"/>
	<polygon style="fill:#FBB131;" points="63.298,47.413 78.186,47.413 78.186,45.893 64.584,45.893 	"/>
	<polygon style="fill:#FBB131;" points="61.068,50.793 78.186,50.793 78.186,49.273 61.966,49.273 	"/>
	<polygon style="fill:#FBB131;" points="59.404,54.163 78.186,54.163 78.186,52.643 60.066,52.643 	"/>
	<polygon style="fill:#FBB131;" points="58.26,57.542 78.186,57.542 78.186,56.023 58.733,56.023 	"/>
	<polygon style="fill:#FBB131;" points="58.922,73.874 78.234,73.874 78.234,72.354 58.449,72.354 	"/>
	<polygon style="fill:#FBB131;" points="60.349,77.254 78.234,77.254 78.234,75.734 59.64,75.734 	"/>
	<polygon style="fill:#FBB131;" points="62.353,80.624 78.234,80.624 78.234,79.104 61.398,79.104 	"/>
	<polygon style="fill:#FBB131;" points="65.113,84.004 78.234,84.004 78.234,82.474 63.78,82.474 	"/>
	<polygon style="fill:#FBB131;" points="57.589,60.913 78.186,60.913 78.186,59.393 57.882,59.393 	"/>
	<polygon style="fill:#FBB131;" points="70.142,70.504 77.997,70.504 77.997,68.984 70.426,68.984 	"/>
	<polygon style="fill:#FBB131;" points="70.766,67.134 77.997,67.134 77.997,65.604 71.05,65.604 	"/>
	<polygon style="fill:#FBB131;" points="57.069,65.604 59.111,65.604 59.111,67.134 57.164,67.134 	"/>
	<path style="fill:#FFFFFF;" d="M53.26,63.456l-0.132-0.009l-0.132-0.019l-0.123-0.019L52.75,63.39l-0.113-0.019l-0.123-0.019
		l-0.123-0.019l-0.132-0.019l-0.132-0.019l-0.151-0.009l-0.17-0.009l-0.18-0.009h-0.199l-0.217,0.009l-0.246,0.019l-0.274,0.019
		L50.5,63.343l-0.18,0.028l-0.161,0.057l-0.142,0.057l-0.132,0.066l-0.123,0.076l-0.095,0.094l-0.085,0.085l-0.057,0.104
		l-0.047,0.104l-0.019,0.113v0.113l0.028,0.123l0.038,0.123l0.076,0.123l0.095,0.123l0.189,0.179l0.227,0.142l0.265,0.123
		l0.284,0.104l0.302,0.094l0.312,0.104l0.312,0.113l0.302,0.123l0.284,0.16l0.265,0.198l0.236,0.236l0.199,0.293l0.151,0.359
		l0.095,0.425l0.038,0.51l-0.038,0.595l-0.066,0.444l-0.113,0.387l-0.151,0.359l-0.189,0.312l-0.217,0.274l-0.246,0.236
		l-0.265,0.208l-0.293,0.179l-0.302,0.141l-0.312,0.123l-0.321,0.094l-0.331,0.075l-0.321,0.057l-0.312,0.028l-0.312,0.019
		l-0.293,0.009h-0.406l-0.378-0.009h-0.331l-0.312-0.01l-0.284-0.009l-0.255-0.019l-0.227-0.019l-0.217-0.028l-0.199-0.019
		l-0.18-0.038l-0.18-0.028l-0.161-0.047l-0.161-0.038l-0.151-0.057l-0.151-0.057l-0.161-0.057l0.425-2.086l0.085,0.019l0.104,0.028
		l0.132,0.038l0.161,0.038l0.17,0.038l0.189,0.038l0.208,0.047l0.227,0.038l0.236,0.038l0.246,0.038l0.255,0.028l0.265,0.028
		l0.274,0.009l0.274,0.009h0.274l0.274-0.009l0.274-0.057l0.217-0.076l0.17-0.104l0.132-0.132l0.095-0.132l0.076-0.151l0.047-0.151
		l0.038-0.142l0.019-0.274l-0.085-0.236l-0.161-0.189l-0.236-0.16l-0.284-0.142l-0.331-0.142l-0.369-0.132l-0.369-0.151l-0.378-0.17
		L47.617,66.6l-0.331-0.245l-0.302-0.293l-0.236-0.359l-0.17-0.425l-0.085-0.51l0.009-0.604l0.047-0.368l0.066-0.349l0.095-0.321
		l0.113-0.302l0.151-0.283l0.17-0.245l0.199-0.236l0.236-0.208l0.274-0.179l0.302-0.151l0.34-0.142l0.378-0.104l0.425-0.085
		l0.463-0.066l0.51-0.038l0.558-0.009h0.35l0.321,0.009l0.293,0.009l0.265,0.009l0.236,0.019l0.217,0.019l0.189,0.019l0.17,0.019
		l0.161,0.019l0.132,0.028l0.123,0.019l0.113,0.019l0.095,0.019l0.085,0.009l0.085,0.019l0.076,0.009L53.26,63.456z M53.695,69.29
		l-0.028,0.236l-0.028,0.217v0.208l0.009,0.198l0.028,0.179l0.047,0.16l0.066,0.16l0.094,0.132l0.123,0.123l0.161,0.113l0.179,0.094
		l0.218,0.085l0.255,0.066l0.302,0.057l0.331,0.038l0.378,0.028h0.718l0.161-0.019l0.151-0.019l0.142-0.019l0.123-0.019l0.113-0.019
		l0.113-0.019l0.095-0.019l0.095-0.028l0.085-0.028l0.085-0.028l0.075-0.028l0.066-0.028l0.066-0.038l0.066-0.038l0.066-0.038
		l0.066-0.047l0.331-1.756l-0.019,0.009l-0.057,0.019l-0.085,0.028l-0.123,0.038l-0.151,0.038l-0.17,0.028l-0.189,0.019
		l-0.208,0.009l-0.227-0.019l-0.208-0.038l-0.189-0.057l-0.17-0.066l-0.123-0.104l-0.095-0.123l-0.047-0.16l0.009-0.189l0.907-5.268
		l1.664,0.047l0.34-2.133h-1.579l0.388-2.285H55.5L53.695,69.29z M61.777,65.014l0.038-0.198l0.057-0.189l0.066-0.189l0.085-0.17
		l0.085-0.16l0.104-0.151l0.113-0.142l0.123-0.132l0.123-0.113l0.142-0.104l0.142-0.085l0.161-0.076l0.161-0.057l0.161-0.038
		l0.17-0.028l0.18-0.009l0.17,0.019l0.161,0.028l0.151,0.038l0.151,0.057l0.142,0.076l0.142,0.085l0.123,0.094l0.113,0.113
		l0.095,0.132l0.095,0.142l0.066,0.16l0.066,0.179l0.038,0.189l0.019,0.208l0.009,0.227l-0.019,0.236h-4.14l-0.435,1.86h6.891
		l0.047-0.576l0.142-0.793l0.066-0.717l-0.009-0.642l-0.076-0.566l-0.132-0.5l-0.189-0.434l-0.236-0.378l-0.284-0.321l-0.312-0.264
		l-0.34-0.227l-0.369-0.17l-0.378-0.142l-0.388-0.094l-0.388-0.066l-0.388-0.038l-0.369-0.009l-0.766,0.038l-0.681,0.113
		l-0.614,0.17l-0.548,0.236l-0.473,0.283l-0.416,0.321l-0.369,0.359l-0.302,0.378l-0.265,0.396l-0.218,0.415l-0.17,0.406
		l-0.142,0.406l-0.104,0.396l-0.076,0.368l-0.057,0.349l-0.038,0.302l-0.047,0.774l0.028,0.699l0.104,0.632l0.161,0.557l0.227,0.5
		l0.274,0.434l0.321,0.387l0.369,0.321l0.397,0.274l0.425,0.236l0.444,0.179l0.463,0.142l0.473,0.113l0.473,0.066l0.473,0.047
		l0.463,0.009h0.312l0.293-0.009h0.255l0.246-0.009l0.217-0.019l0.199-0.019l0.189-0.019l0.17-0.028l0.161-0.028l0.151-0.038
		l0.151-0.047l0.142-0.047l0.142-0.057l0.151-0.057l0.151-0.076l0.151-0.076l0.378-2.322l-0.274,0.16l-0.265,0.151L66.38,68.96
		l-0.265,0.104l-0.255,0.085l-0.265,0.057l-0.255,0.047l-0.255,0.038l-0.255,0.019l-0.246,0.009h-0.255l-0.246-0.009l-0.246-0.019
		l-0.246-0.028l-0.236-0.028l-0.246-0.038l-0.189-0.038l-0.189-0.066l-0.189-0.085l-0.17-0.104l-0.17-0.113l-0.151-0.142
		l-0.142-0.142l-0.132-0.16l-0.113-0.16l-0.104-0.179l-0.076-0.17l-0.066-0.179l-0.038-0.179l-0.019-0.179l0.009-0.17l0.028-0.16
		L61.777,65.014z M84.416,59.227l-0.057-0.019l-0.085-0.038l-0.113-0.038l-0.132-0.047l-0.151-0.057l-0.18-0.057l-0.189-0.057
		l-0.217-0.057l-0.227-0.057l-0.246-0.047l-0.255-0.057l-0.265-0.038l-0.284-0.038l-0.284-0.028l-0.293-0.019l-0.302-0.009
		l-0.359,0.009l-0.34,0.019l-0.34,0.038l-0.321,0.047l-0.321,0.057l-0.302,0.066l-0.293,0.076l-0.293,0.094l-0.274,0.104
		l-0.265,0.113l-0.255,0.123l-0.255,0.142l-0.236,0.151l-0.227,0.16l-0.217,0.179l-0.217,0.189l-0.199,0.198l-0.189,0.208
		l-0.189,0.227l-0.17,0.236l-0.17,0.245l-0.161,0.264l-0.142,0.274l-0.142,0.293l-0.132,0.293l-0.123,0.312l-0.123,0.33l-0.104,0.33
		l-0.095,0.349l-0.095,0.368L74.5,64.438l-0.076,0.387l-0.104,0.784l-0.019,0.736l0.038,0.67l0.113,0.632l0.17,0.576l0.227,0.529
		l0.265,0.472l0.312,0.425l0.35,0.378l0.378,0.33l0.397,0.283l0.416,0.227l0.435,0.189l0.435,0.142l0.435,0.094l0.435,0.047
		l0.529,0.028l0.482,0.009l0.425-0.009l0.369-0.019l0.331-0.038l0.284-0.038l0.246-0.047l0.217-0.066l0.17-0.057l0.151-0.066
		l0.132-0.066l0.104-0.076l0.085-0.057l0.076-0.066l0.057-0.057l0.057-0.047l0.425-2.521l-0.189,0.17l-0.199,0.151l-0.217,0.123
		l-0.236,0.104l-0.236,0.076l-0.236,0.066l-0.246,0.047l-0.246,0.028l-0.236,0.019h-0.236h-0.217l-0.208-0.019l-0.189-0.019
		l-0.17-0.019l-0.142-0.028l-0.123-0.028l-0.359-0.085l-0.321-0.123l-0.293-0.142l-0.255-0.17l-0.227-0.198l-0.199-0.217
		l-0.17-0.245l-0.142-0.255L77.45,67.1l-0.085-0.283l-0.066-0.302l-0.028-0.321l-0.009-0.321l0.019-0.33l0.038-0.33l0.057-0.34
		l0.151-0.604l0.18-0.529l0.199-0.472l0.208-0.415l0.227-0.349l0.236-0.302l0.246-0.245l0.255-0.208l0.265-0.17l0.265-0.132
		l0.265-0.104l0.265-0.076l0.265-0.047l0.255-0.028l0.246-0.019h0.236h0.236h0.227l0.217,0.019l0.217,0.019l0.199,0.028l0.199,0.038
		l0.18,0.038l0.18,0.047l0.17,0.057l0.161,0.057l0.161,0.057l0.142,0.057l0.142,0.066l0.132,0.066l0.123,0.057l0.123,0.066
		L84.416,59.227z M109.354,59.042l-2.135,12.35h-2.615l0.18-1.054v-0.096l-0.144,0.192l-0.168,0.168l-0.156,0.156l-0.168,0.132
		l-0.18,0.12l-0.168,0.108l-0.168,0.084l-0.18,0.084l-0.18,0.06l-0.18,0.048l-0.18,0.048l-0.192,0.036l-0.18,0.024l-0.18,0.024
		h-0.384l-0.492-0.036l-0.456-0.096l-0.408-0.168l-0.384-0.216l-0.336-0.276l-0.3-0.323l-0.264-0.347l-0.228-0.395l-0.192-0.419
		l-0.156-0.443l-0.096-0.467l-0.084-0.479l-0.024-0.479l0.012-0.491l0.048-0.491l0.084-0.479l0.144-0.551l0.168-0.527l0.192-0.491
		l0.24-0.443l0.24-0.431l0.288-0.371l0.3-0.347l0.312-0.311l0.324-0.275l0.348-0.228l0.36-0.216l0.36-0.156l0.384-0.132l0.372-0.084
		l0.384-0.06l0.384-0.024l0.276,0.012l0.264,0.036l0.252,0.048l0.216,0.06l0.228,0.072l0.18,0.084l0.192,0.108l0.168,0.108
		l0.156,0.108l0.144,0.132l0.12,0.12l0.108,0.12l0.096,0.12l0.084,0.132l0.084,0.108l0.048,0.108l0.672-3.701H109.354z
		 M105.479,65.642l-0.012-0.263l-0.024-0.24l-0.036-0.24l-0.072-0.228l-0.072-0.216l-0.096-0.192l-0.12-0.18l-0.12-0.144
		l-0.144-0.132l-0.156-0.12l-0.168-0.072l-0.18-0.048l-0.204-0.024l-0.252,0.024l-0.24,0.036l-0.216,0.072l-0.216,0.096
		l-0.192,0.132l-0.192,0.144l-0.156,0.168l-0.156,0.18l-0.144,0.204l-0.132,0.216l-0.12,0.228l-0.108,0.24l-0.096,0.264
		l-0.072,0.251l-0.084,0.276l-0.048,0.275l-0.048,0.407l0.012,0.455l0.072,0.467l0.12,0.443l0.192,0.383l0.24,0.311l0.312,0.216
		l0.384,0.072l0.264-0.024l0.24-0.048l0.228-0.072l0.216-0.108l0.204-0.108l0.192-0.144l0.18-0.156l0.156-0.18l0.144-0.18
		l0.132-0.216l0.12-0.216l0.108-0.228l0.096-0.228l0.144-0.503l0.048-0.252l0.036-0.264l0.036-0.275V65.642z M45.891,63.57v0.359
		L45.843,64.3l-0.96,4.995l-0.372,2.096h-2.387l0.072-0.395l0.036-0.347l0.048-0.264l0.036-0.144l-0.132,0.156l-0.156,0.144
		l-0.18,0.144l-0.192,0.132l-0.228,0.132l-0.24,0.12l-0.252,0.108l-0.252,0.096l-0.276,0.084l-0.276,0.072l-0.264,0.048
		l-0.288,0.048l-0.552,0.024l-0.264-0.024l-0.252-0.048l-0.336-0.084l-0.3-0.096l-0.264-0.12l-0.24-0.144l-0.204-0.144l-0.192-0.168
		l-0.144-0.18l-0.132-0.192l-0.12-0.204l-0.096-0.204l-0.072-0.204l-0.06-0.216l-0.036-0.216l-0.024-0.216l-0.024-0.204v-0.216
		l0.036-0.359l0.048-0.359l0.096-0.323l0.12-0.323l0.156-0.299l0.168-0.275l0.204-0.264l0.228-0.24l0.228-0.216l0.264-0.192
		l0.276-0.18l0.288-0.156l0.3-0.132l0.312-0.108l0.324-0.084l0.336-0.06h0.06l0.072-0.012l0.096-0.012l0.12-0.012l0.132-0.012
		l0.144-0.024l0.156-0.012l0.156-0.024l0.168-0.024h0.168l0.156-0.024l0.288-0.024h0.684l0.204,0.012h0.204l0.18,0.012l0.132,0.012
		l0.084,0.012h0.036l0.012-0.072l0.06-0.168l0.048-0.204l0.024-0.18l-0.048-0.204l-0.084-0.192l-0.108-0.168l-0.156-0.144
		l-0.18-0.12l-0.192-0.084l-0.228-0.06l-0.252-0.012l-0.264-0.012l-0.276-0.012h-0.3l-0.3,0.012l-0.312,0.012l-0.3,0.036l-0.3,0.024
		l-0.3,0.036l-0.276,0.036l-0.276,0.048l-0.252,0.048l-0.228,0.048l-0.204,0.06l-0.168,0.06l-0.132,0.06l-0.108,0.06l0.672-2.276
		l0.204-0.084l0.216-0.072l0.228-0.072l0.216-0.048l0.228-0.048l0.252-0.036l0.24-0.036l0.264-0.024l0.264-0.012l0.276-0.012
		l0.276-0.012h0.912l0.324,0.012l0.336,0.012l0.264,0.012l0.288,0.048l0.288,0.072l0.3,0.084l0.3,0.108l0.276,0.132l0.288,0.168
		l0.264,0.18l0.24,0.204l0.204,0.228l0.192,0.252l0.144,0.287l0.096,0.299L45.891,63.57z M42.605,66.828l-0.012-0.048l-0.036-0.048
		l-0.048-0.024l-0.096-0.024l-0.108-0.024h-0.564l-0.156,0.024l-0.156,0.024l-0.144,0.012l-0.144,0.024l-0.132,0.024l-0.108,0.036
		l-0.108,0.024l-0.072,0.012l-0.072,0.036l-0.108,0.036l-0.096,0.048l-0.132,0.06l-0.12,0.06l-0.132,0.072l-0.12,0.072l-0.132,0.096
		l-0.12,0.096l-0.12,0.108l-0.096,0.12l-0.096,0.12l-0.072,0.132l-0.06,0.156l-0.024,0.144l-0.012,0.323l0.048,0.252l0.096,0.192
		l0.12,0.144l0.144,0.096l0.168,0.048l0.144,0.036l0.156,0.012l0.276-0.012l0.264-0.036l0.24-0.036l0.216-0.048l0.192-0.072
		l0.18-0.084l0.156-0.084l0.144-0.108l0.12-0.096l0.12-0.108l0.096-0.108l0.072-0.108l0.072-0.12l0.048-0.108l0.048-0.108
		l0.036-0.108l0.072-0.264l0.072-0.311l0.048-0.311L42.605,66.828z M75.002,61.222l-0.024,0.024l-0.048,0.072l-0.06,0.108
		l-0.084,0.144l-0.096,0.156l-0.096,0.18l-0.096,0.18l-0.072,0.18l-0.084,0.263l-0.084,0.263l-0.072,0.264l-0.06,0.252l-0.048,0.204
		l-0.036,0.168l-0.036,0.12l-0.012,0.036l-0.036-0.012l-0.036-0.012h-0.096l-0.048-0.012l-0.036-0.012h-0.024l-0.372,0.024
		l-0.324,0.048l-0.288,0.084l-0.264,0.084l-0.228,0.096l-0.204,0.12l-0.18,0.144l-0.144,0.144l-0.132,0.156l-0.12,0.168l-0.096,0.18
		l-0.072,0.192l-0.06,0.192l-0.048,0.192l-0.048,0.204l-0.036,0.204l-0.912,5.378h-2.711l1.763-10.122h2.711l-0.336,1.713
		l0.144-0.192l0.132-0.18l0.144-0.18l0.132-0.168l0.144-0.156l0.144-0.144l0.156-0.144l0.156-0.12l0.168-0.12l0.18-0.084
		l0.204-0.096l0.216-0.084l0.228-0.048l0.24-0.048l0.264-0.036l0.3-0.012h0.06l0.072,0.012h0.144l0.06,0.012l0.048,0.012
		l0.036,0.012H75.002z M99.602,61.174l-0.432,2.42h-0.24l-0.36,0.024l-0.336,0.06l-0.3,0.072l-0.276,0.096l-0.24,0.108l-0.228,0.144
		l-0.36,0.311l-0.144,0.18l-0.12,0.192l-0.12,0.192l-0.096,0.216L96.28,65.39l-0.06,0.204l-0.048,0.216l-0.048,0.204l-0.948,5.378
		h-2.663l1.763-10.122h2.651l-0.276,1.713l0.132-0.192l0.144-0.168l0.132-0.18l0.144-0.156l0.156-0.156l0.144-0.144l0.168-0.132
		l0.168-0.132l0.18-0.12l0.192-0.108l0.192-0.084l0.216-0.084l0.228-0.06l0.228-0.048l0.264-0.036L99.602,61.174z M92.837,63.57
		v0.359L92.789,64.3l-0.995,4.995l-0.384,2.096h-2.375l0.024-0.395l0.012-0.335v-0.252l0.012-0.12l-0.12,0.144l-0.144,0.144
		l-0.168,0.132l-0.192,0.132l-0.192,0.12l-0.228,0.12l-0.24,0.108l-0.24,0.096l-0.252,0.072l-0.264,0.072l-0.264,0.048l-0.264,0.048
		l-0.276,0.012l-0.264,0.012l-0.252-0.024l-0.264-0.048l-0.336-0.084l-0.3-0.096l-0.264-0.12l-0.252-0.144l-0.204-0.144l-0.18-0.168
		l-0.156-0.18l-0.132-0.192l-0.108-0.204l-0.168-0.407l-0.036-0.216l-0.048-0.216l-0.024-0.216l-0.024-0.204v-0.216l0.024-0.359
		l0.06-0.359l0.084-0.323l0.12-0.323l0.144-0.299l0.18-0.275l0.192-0.264l0.228-0.24l0.24-0.216l0.252-0.192l0.276-0.18l0.3-0.156
		l0.288-0.132l0.312-0.108l0.312-0.084l0.324-0.06h0.06l0.072-0.012l0.096-0.012l0.12-0.012l0.132-0.012l0.144-0.024l0.144-0.012
		l0.336-0.048h0.156l0.168-0.024l0.144-0.012l0.132-0.012h0.696l0.216,0.012h0.204l0.18,0.012l0.156,0.012l0.084,0.012h0.036
		l0.024-0.072l0.024-0.168l0.036-0.204l0.012-0.18l-0.036-0.204l-0.072-0.192l-0.132-0.168l-0.132-0.144l-0.18-0.12l-0.192-0.084
		l-0.204-0.06l-0.228-0.012l-0.264-0.012l-0.288-0.012H87.92l-0.312,0.012l-0.312,0.012l-0.3,0.036l-0.3,0.024l-0.3,0.036
		l-0.276,0.036l-0.276,0.048l-0.252,0.048l-0.216,0.048l-0.216,0.06l-0.168,0.06l-0.132,0.06l-0.108,0.06l0.66-2.276l0.216-0.084
		l0.432-0.144l0.228-0.048l0.24-0.048l0.228-0.036l0.252-0.036l0.252-0.024l0.264-0.012l0.552-0.024h0.888l0.648,0.024l0.264,0.012
		l0.276,0.048l0.3,0.072l0.3,0.084l0.288,0.108l0.3,0.132l0.276,0.168l0.276,0.18l0.228,0.204l0.216,0.228l0.192,0.252l0.144,0.287
		l0.108,0.299L92.837,63.57z M89.515,66.828l-0.024-0.06l-0.036-0.048l-0.072-0.024l-0.084-0.036h-0.108l-0.12-0.012h-0.144
		l-0.144,0.012l-0.156,0.012l-0.144,0.024l-0.156,0.012l-0.144,0.024l-0.132,0.024L87.92,66.78l-0.12,0.024l-0.096,0.024
		l-0.06,0.012l-0.084,0.024l-0.096,0.024l-0.096,0.048l-0.12,0.048l-0.12,0.06l-0.132,0.072l-0.12,0.084l-0.12,0.084l-0.132,0.096
		l-0.096,0.108l-0.108,0.12l-0.084,0.132l-0.072,0.144l-0.048,0.156l-0.036,0.156v0.323l0.036,0.252L86.3,68.96l0.108,0.144
		l0.144,0.096l0.156,0.048l0.168,0.036l0.156,0.012l0.288-0.012l0.264-0.036l0.24-0.048l0.228-0.06l0.204-0.072l0.18-0.084
		l0.168-0.096l0.156-0.12l0.132-0.096l0.108-0.132l0.108-0.108l0.084-0.12l0.06-0.12l0.048-0.108l0.048-0.12l0.024-0.096
		l0.036-0.264l0.048-0.275l0.036-0.264L89.515,66.828z M37.231,58.994l-2.195,12.398h-2.567l1.619-9.271h-0.108l-3.838,9.271H27.24
		l-0.024-0.395l-0.06-1.03l-0.084-1.461l-0.096-1.677l-0.096-1.689l-0.084-1.485l-0.072-1.078l-0.012-0.455h-0.144l-1.571,9.271
		H22.43l2.135-12.398h4.474l0.432,7.355l3.083-7.355H37.231z"/>
</g>
<g id="Layer_1">
</g>
</svg>
