<?xml version="1.0" encoding="iso-8859-1"?>
<!-- Generator: Adobe Illustrator 19.0.1, SVG Export Plug-In . SVG Version: 6.00 Build 0)  -->
<svg version="1.1" xmlns="http://www.w3.org/2000/svg" xmlns:xlink="http://www.w3.org/1999/xlink" x="0px" y="0px"
	 viewBox="0 0 128 128" style="enable-background:new 0 0 128 128;" xml:space="preserve">
<g id="_x39_">
	<linearGradient id="SVGID_1_" gradientUnits="userSpaceOnUse" x1="64" y1="24.3649" x2="64" y2="103.6351">
		<stop  offset="0" style="stop-color:#FFFFFF"/>
		<stop  offset="1" style="stop-color:#EFEFEF"/>
	</linearGradient>
	<path style="fill-rule:evenodd;clip-rule:evenodd;fill:url(#SVGID_1_);stroke:#CCCCCC;stroke-miterlimit:10;" d="M6.85,24.365
		h114.3c3.507,0,6.35,2.839,6.35,6.342v66.587c0,3.503-2.843,6.342-6.35,6.342H6.85c-3.507,0-6.35-2.839-6.35-6.342V30.707
		C0.5,27.204,3.343,24.365,6.85,24.365z"/>
	<path style="fill:#04ADAD;" d="M103.384,34.254l-21.889-0.005c-0.003,0-0.005,0-0.005,0c-0.018,0-0.034,0.002-0.053,0.002
		c-3.006,0.092-6.75,2.501-7.431,5.471L63.653,85.464c-0.68,2.997,1.173,5.436,4.16,5.481h2.959h13.559h6.476
		c2.94-0.145,5.796-2.526,6.467-5.462l10.352-45.741C108.318,36.714,106.419,34.254,103.384,34.254z"/>
	<path style="fill:#087EBF;" d="M63.653,85.464l10.354-45.742c0.682-2.97,4.425-5.379,7.431-5.471l-8.701-0.006l-15.68-0.003
		c-3.016,0.061-6.808,2.487-7.489,5.479L39.21,85.464c-0.685,2.997,1.177,5.436,4.158,5.481h24.444
		C64.826,90.9,62.973,88.461,63.653,85.464z"/>
	<path style="fill:#EA0F3E;" d="M39.21,85.464l10.357-45.742c0.681-2.992,4.473-5.418,7.489-5.479l-20.088-0.006
		c-3.032,0-6.919,2.453-7.613,5.484L19.001,85.464c-0.063,0.279-0.098,0.552-0.117,0.82v0.848c0.201,2.186,1.874,3.776,4.274,3.813
		h20.21C40.387,90.9,38.525,88.461,39.21,85.464z"/>
	<path style="fill:#FFFFFF;" d="M57.254,66.392h0.379c0.349,0,0.584-0.117,0.694-0.349l0.987-1.476h2.647l-0.551,0.97h3.17
		l-0.402,1.488h-3.774c-0.434,0.654-0.971,0.96-1.614,0.923h-1.964L57.254,66.392 M56.818,68.525h6.951l-0.444,1.616h-2.797
		l-0.424,1.56h2.72l-0.442,1.617h-2.723l-0.628,2.305c-0.156,0.385,0.048,0.559,0.612,0.519h2.218l-0.413,1.501h-4.255
		c-0.805,0-1.082-0.46-0.831-1.384l0.81-2.942h-1.739l0.442-1.617h1.738l0.428-1.56h-1.662L56.818,68.525z M67.909,64.556
		L67.8,65.501c0,0,1.31-0.981,2.501-0.981h4.4l-1.683,6.081c-0.14,0.694-0.738,1.041-1.794,1.041h-4.986l-1.167,4.27
		c-0.067,0.229,0.029,0.346,0.28,0.346h0.981l-0.362,1.326h-2.493c-0.958,0-1.355-0.287-1.198-0.866l3.302-12.162H67.909z
		 M71.635,66.275h-3.927l-0.469,1.64c0,0,0.654-0.471,1.747-0.488c1.088-0.017,2.332,0,2.332,0L71.635,66.275z M70.213,70.082
		c0.291,0.039,0.452-0.076,0.471-0.347l0.241-0.864h-3.932l-0.329,1.211H70.213z M67.56,72.047h2.268l-0.043,0.979h0.603
		c0.305,0,0.456-0.096,0.456-0.291l0.177-0.633h1.885l-0.252,0.924c-0.211,0.771-0.776,1.173-1.693,1.212h-1.207l-0.005,1.674
		c-0.022,0.268,0.22,0.406,0.72,0.406h1.135l-0.366,1.324h-2.723c-0.76,0.037-1.138-0.326-1.13-1.097L67.56,72.047z M77.192,66.458
		l0.527-1.846h2.659l-0.114,0.678c0,0,1.355-0.678,2.335-0.678c0.977,0,3.284,0,3.284,0l-0.521,1.846h-0.516l-2.48,8.715h0.518
		l-0.492,1.73h-0.517l-0.214,0.751h-2.575l0.216-0.751h-5.078l0.495-1.73h0.508l2.48-8.715H77.192 M80.06,66.458l-0.673,2.359
		c0,0,1.156-0.443,2.154-0.569c0.22-0.824,0.506-1.79,0.506-1.79H80.06z M79.071,69.922l-0.678,2.47c0,0,1.281-0.629,2.164-0.683
		c0.254-0.954,0.506-1.787,0.506-1.787H79.071z M79.571,75.173l0.506-1.792h-1.984l-0.511,1.792H79.571z M85.996,64.497h2.5
		l0.106,0.92c-0.016,0.235,0.122,0.347,0.419,0.347h0.442l-0.447,1.56h-1.837c-0.701,0.036-1.063-0.231-1.096-0.81L85.996,64.497z
		 M85.265,67.844h8.095l-0.477,1.675h-2.575l-0.442,1.557h2.574l-0.479,1.672h-2.864l-0.649,0.979h1.403l0.325,1.962
		c0.039,0.196,0.211,0.291,0.508,0.291h0.436l-0.46,1.615h-1.54c-0.799,0.039-1.214-0.228-1.249-0.806l-0.371-1.791l-1.278,1.906
		c-0.3,0.538-0.763,0.79-1.39,0.751h-2.356l0.458-1.616h0.736c0.3,0,0.553-0.134,0.78-0.405l1.998-2.886h-2.577l0.478-1.672h2.795
		l0.444-1.557h-2.797L85.265,67.844z M40.094,56.453c-0.308,1.504-1.019,2.66-2.128,3.481c-1.094,0.806-2.506,1.21-4.237,1.21
		c-1.627,0-2.821-0.413-3.583-1.242c-0.527-0.588-0.789-1.337-0.789-2.241c0-0.372,0.045-0.775,0.133-1.208l1.844-8.875h2.783
		L32.3,56.353c-0.058,0.243-0.079,0.47-0.076,0.673c-0.003,0.449,0.109,0.818,0.334,1.105c0.33,0.427,0.865,0.64,1.612,0.64
		c0.855,0,1.561-0.21,2.109-0.631c0.547-0.42,0.903-1.014,1.066-1.787l1.823-8.774h2.77L40.094,56.453 M42.66,52.96h1.963
		L44.4,54.103l0.281-0.326c0.636-0.681,1.411-1.019,2.326-1.019c0.824,0,1.422,0.241,1.795,0.723
		c0.371,0.483,0.471,1.15,0.297,2.007l-1.084,5.398h-2.02l0.977-4.892c0.1-0.506,0.072-0.882-0.082-1.125
		c-0.156-0.243-0.447-0.362-0.871-0.362c-0.521,0-0.956,0.16-1.313,0.482c-0.357,0.324-0.595,0.773-0.71,1.345l-0.899,4.552h-2.027
		L42.66,52.96 M65.204,52.96h1.967l-0.224,1.144l0.28-0.326c0.638-0.681,1.415-1.019,2.326-1.019c0.826,0,1.424,0.241,1.795,0.723
		c0.366,0.483,0.473,1.15,0.294,2.007l-1.079,5.398h-2.022l0.977-4.892c0.101-0.506,0.072-0.882-0.08-1.125
		c-0.161-0.243-0.449-0.362-0.869-0.362c-0.521,0-0.957,0.16-1.318,0.482c-0.355,0.324-0.593,0.773-0.704,1.345l-0.908,4.552h-2.021
		L65.204,52.96 M51.783,52.962h2.181l-1.709,7.921h-2.175L51.783,52.962 M52.47,50.077h2.199L54.257,52H52.06L52.47,50.077z
		 M55.894,60.28c-0.571-0.545-0.858-1.278-0.862-2.21c0-0.16,0.011-0.34,0.031-0.538c0.023-0.201,0.048-0.397,0.085-0.579
		c0.259-1.286,0.81-2.307,1.66-3.06c0.844-0.757,1.868-1.137,3.062-1.137c0.979,0,1.757,0.274,2.326,0.82
		c0.567,0.55,0.852,1.292,0.852,2.237c0,0.161-0.011,0.348-0.032,0.55c-0.026,0.202-0.056,0.399-0.092,0.59
		c-0.252,1.268-0.8,2.279-1.651,3.018c-0.847,0.745-1.865,1.117-3.054,1.117C57.236,61.087,56.461,60.819,55.894,60.28
		 M60.047,58.712c0.384-0.416,0.659-1.047,0.826-1.887c0.027-0.132,0.05-0.268,0.063-0.405c0.015-0.134,0.021-0.26,0.021-0.374
		c0-0.489-0.124-0.869-0.376-1.136c-0.247-0.271-0.601-0.404-1.059-0.404c-0.603,0-1.096,0.211-1.479,0.635
		c-0.391,0.425-0.666,1.067-0.839,1.921c-0.023,0.131-0.043,0.262-0.061,0.391c-0.013,0.131-0.019,0.253-0.016,0.365
		c0,0.486,0.125,0.859,0.376,1.124c0.247,0.266,0.6,0.397,1.061,0.397C59.171,59.34,59.662,59.129,60.047,58.712 M74.929,48.048
		h5.713c1.099,0,1.95,0.247,2.532,0.736c0.582,0.493,0.873,1.202,0.873,2.127v0.027c0,0.175-0.013,0.374-0.029,0.589
		c-0.027,0.212-0.063,0.427-0.111,0.65c-0.251,1.222-0.838,2.205-1.739,2.95c-0.903,0.743-1.979,1.116-3.213,1.116H75.89
		l-0.947,4.642h-2.652L74.929,48.048 M76.36,54.012h2.538c0.664,0,1.188-0.153,1.572-0.457c0.379-0.308,0.63-0.776,0.771-1.414
		c0.023-0.116,0.035-0.222,0.053-0.32c0.008-0.091,0.019-0.184,0.019-0.274c0-0.455-0.164-0.784-0.487-0.99
		c-0.325-0.21-0.833-0.31-1.535-0.31h-2.16L76.36,54.012z M95.917,62.418c-0.838,1.78-1.636,2.818-2.106,3.301
		c-0.471,0.477-1.4,1.588-3.641,1.504l0.191-1.359c1.887-0.58,2.908-3.195,3.488-4.353l-0.693-8.529l1.458-0.02h1.223l0.133,5.351
		l2.294-5.351h2.323L95.917,62.418 M89.423,53.606l-0.921,0.634c-0.965-0.754-1.847-1.219-3.545-0.433
		c-2.313,1.071-4.248,9.291,2.122,6.584l0.365,0.429l2.506,0.064l1.646-7.468L89.423,53.606 M87.997,57.689
		c-0.402,1.187-1.3,1.972-2.006,1.747c-0.703-0.217-0.955-1.362-0.548-2.55c0.403-1.19,1.308-1.971,2.009-1.748
		C88.156,55.357,88.409,56.501,87.997,57.689"/>
</g>
<g id="Layer_1">
</g>
</svg>
