<?xml version="1.0" encoding="iso-8859-1"?>
<!-- Generator: Adobe Illustrator 19.0.1, SVG Export Plug-In . SVG Version: 6.00 Build 0)  -->
<svg version="1.1" xmlns="http://www.w3.org/2000/svg" xmlns:xlink="http://www.w3.org/1999/xlink" x="0px" y="0px"
	 viewBox="0 0 128 128" style="enable-background:new 0 0 128 128;" xml:space="preserve">
<g id="_x31_">
	<linearGradient id="SVGID_1_" gradientUnits="userSpaceOnUse" x1="64" y1="24.3649" x2="64" y2="103.6351">
		<stop  offset="0" style="stop-color:#FFFFFF"/>
		<stop  offset="1" style="stop-color:#EFEFEF"/>
	</linearGradient>
	<path style="fill-rule:evenodd;clip-rule:evenodd;fill:url(#SVGID_1_);stroke:#CCCCCC;stroke-miterlimit:10;" d="M6.85,24.365
		h114.3c3.507,0,6.35,2.839,6.35,6.342v66.587c0,3.503-2.843,6.342-6.35,6.342H6.85c-3.507,0-6.35-2.839-6.35-6.342V30.707
		C0.5,27.204,3.343,24.365,6.85,24.365z"/>
	<path id="icon" style="fill:#0F5DA5;" d="M80.143,56.693l1.056-6.061c0,0-3.239-1.222-6.609-1.222
		c-3.646,0-12.306,1.581-12.306,9.331c0,7.283,10.159,7.367,10.159,11.2c0,3.821-9.116,3.138-12.126,0.719l-1.092,6.337
		c0,0,3.287,1.593,8.3,1.593s12.582-2.599,12.582-9.655c0-7.331-10.255-8.014-10.255-11.2C69.852,54.549,77,54.956,80.143,56.693z
		 M99.838,49.913h-5.913c-2.723,0-3.394,2.096-3.394,2.096L79.579,78.099h7.652l1.535-4.181h9.344l0.864,4.181h6.741L99.838,49.913z
		 M90.89,68.133l3.85-10.553l2.183,10.553H90.89z M41.161,49.913l-7.005,19.381l-0.828-4.169l-9.991-11.511l6.381,24.484h7.664
		l11.695-28.186H41.161z M51.944,49.913L47.35,78.099h7.341l4.594-28.186H51.944z"/>
	<path style="fill:#EAAE07;" d="M33.329,65.126l-9.991-11.511c-4.15-2.492-7.688-3.222-7.688-3.222l0.132-0.479h11.587
		c3.191,0,3.49,2.539,3.49,2.539L33.329,65.126z"/>
</g>
<g id="Layer_1">
</g>
</svg>
